<svg width="365" height="42" viewBox="0 0 365 42" fill="none" xmlns="http://www.w3.org/2000/svg">
    <g clip-path="url(#clip0_52_3525)">
        <path fill-rule="evenodd" clip-rule="evenodd"
              d="M93.9751 14.0861V18.6092H89.6338H88.6124V19.6431V21.5815V27.9138V29.5938V30.7569C88.6124 31.2738 89.1231 31.7908 89.6338 31.7908H90.783H94.1027V33.9877V36.1846H89.2508C86.4418 36.1846 84.0158 33.8584 84.0158 30.8861V28.1723V27.0092V18.8677H80.0576V14.3446H84.0158V9.30459L88.7401 7.88306V14.0861H93.9751Z"
              fill="white"/>
        <path fill-rule="evenodd" clip-rule="evenodd"
              d="M139.685 13.5692C133.429 13.5692 128.321 18.7384 128.321 25.0708C128.321 31.4031 133.429 36.5723 139.685 36.5723C143.388 36.5723 146.708 34.7631 148.878 31.92L145.303 29.0769C144.026 30.8861 141.983 31.92 139.685 31.92C136.621 31.92 133.939 29.8523 133.046 27.0092H146.197H149.9H150.793C150.921 26.3631 150.921 25.7169 150.921 24.9415C151.049 18.7384 145.942 13.5692 139.685 13.5692ZM133.046 23.2615C133.812 20.2892 136.493 18.0923 139.685 18.0923C142.877 18.0923 145.558 20.2892 146.325 23.2615H133.046Z"
              fill="white"/>
        <path fill-rule="evenodd" clip-rule="evenodd"
              d="M72.9071 17.1877V5.94464H77.6314V36.0554H72.9071V32.9539C71.1195 35.4093 68.5659 36.7016 65.2461 36.7016C62.3094 36.7016 59.7558 35.5385 57.5851 33.3416C55.4145 31.1446 54.3931 28.4308 54.3931 25.0708C54.3931 21.7108 55.4145 19.1262 57.5851 16.8C59.7558 14.6031 62.1817 13.44 65.2461 13.44C68.5659 13.5693 71.1195 14.7323 72.9071 17.1877ZM61.0326 30.1108C62.3094 31.4031 63.9693 32.0493 65.8845 32.0493C67.7998 32.0493 69.4597 31.4031 70.7365 30.1108C72.0133 28.8185 72.6517 27.1385 72.6517 25.0708C72.6517 23.0031 72.0133 21.3231 70.7365 20.0308C69.4597 18.7385 67.7998 17.9631 65.8845 17.9631C63.9693 17.9631 62.3094 18.6093 61.0326 20.0308C59.7558 21.3231 59.1173 23.0031 59.1173 25.0708C59.1173 27.0093 59.7558 28.8185 61.0326 30.1108Z"
              fill="white"/>
        <path fill-rule="evenodd" clip-rule="evenodd"
              d="M223.701 13.5692C226.127 13.5692 228.17 14.3446 229.702 16.0246C231.234 17.5754 232 19.7723 232 22.4862V36.0554H227.276V22.7446C227.276 21.1938 226.893 20.0308 226.127 19.2554C225.361 18.3508 224.339 17.9631 223.063 17.9631C221.53 17.9631 220.381 18.48 219.615 19.3846C218.721 20.4185 218.338 21.84 218.338 23.6492V35.9262H213.614V22.7446C213.614 21.1938 213.231 20.0308 212.593 19.2554C211.826 18.48 210.933 17.9631 209.528 17.9631C208.124 17.9631 206.974 18.48 206.081 19.5138C205.187 20.5477 204.804 21.9692 204.804 23.7785V36.0554H200.08V14.0862H204.804V16.6708C206.208 14.4738 208.251 13.44 211.06 13.44C213.869 13.44 215.912 14.6031 217.189 16.9292C218.466 14.7323 220.764 13.5692 223.701 13.5692Z"
              fill="white"/>
        <path d="M125.512 5.94464H120.788V36.0554H125.512V5.94464Z" fill="white"/>
        <path fill-rule="evenodd" clip-rule="evenodd"
              d="M1.91524 18.9969H12.1299C13.9174 18.9969 15.5773 18.2215 16.8542 17.0585C18.0033 15.8954 18.7694 14.2154 18.7694 12.2769V1.93846V0H20.6846H39.5817H41.497V1.93846V20.9354V22.8738H39.5817H29.3671C27.5795 22.8738 25.9196 23.6492 24.6428 24.8123C23.4937 25.9754 22.7276 27.6554 22.7276 29.5938V39.9323V41.8708H20.8123H1.91524H0V40.0615V21.0646V19.1262H1.91524V18.9969ZM12.1299 23.0031H3.83049V38.1231H18.7694V29.7231C18.7694 26.7508 19.9185 24.1662 21.8338 22.2277C23.749 20.2892 26.4304 19.1262 29.2394 19.1262H37.5388V3.87692H22.7276V12.2769C22.7276 15.2492 21.5784 17.8338 19.6632 19.7723C17.7479 21.84 15.0666 23.0031 12.1299 23.0031Z"
              fill="#33CC66"/>
        <path fill-rule="evenodd" clip-rule="evenodd"
              d="M186.034 13.5692C179.777 13.5692 174.67 18.7384 174.67 25.0708C174.67 31.4031 179.777 36.5723 186.034 36.5723C192.29 36.5723 197.397 31.4031 197.397 25.0708C197.397 18.7384 192.29 13.5692 186.034 13.5692ZM186.034 18.0923C189.864 18.0923 192.929 21.1938 192.929 25.0708C192.929 28.9477 189.864 32.0492 186.034 32.0492C182.203 32.0492 179.139 28.9477 179.139 25.0708C179.139 21.1938 182.203 18.0923 186.034 18.0923Z"
              fill="white"/>
        <path fill-rule="evenodd" clip-rule="evenodd"
              d="M164.328 13.5692C158.071 13.5692 152.964 18.7384 152.964 25.0708C152.964 31.4031 158.071 36.5723 164.328 36.5723C168.03 36.5723 171.478 34.7631 173.521 31.92L170.073 28.9477C168.797 30.7569 166.754 32.0492 164.328 32.0492C160.497 32.0492 157.433 28.9477 157.433 25.0708C157.433 21.1938 160.497 18.0923 164.328 18.0923C166.754 18.0923 168.797 19.2554 170.073 21.1938L173.521 18.2215C171.478 15.3784 168.158 13.5692 164.328 13.5692Z"
              fill="white"/>
        <path fill-rule="evenodd" clip-rule="evenodd"
              d="M106.615 13.5692C100.359 13.5692 95.2515 18.7384 95.2515 25.0708C95.2515 31.4031 100.359 36.5723 106.615 36.5723C110.318 36.5723 113.638 34.7631 115.808 31.92L112.233 29.0769C110.956 30.8861 108.914 31.92 106.615 31.92C103.551 31.92 100.87 29.8523 99.9757 27.0092H113.127H116.83H117.724C117.851 26.3631 117.851 25.7169 117.851 24.9415C118.107 18.7384 112.999 13.5692 106.615 13.5692ZM99.9757 23.2615C100.742 20.2892 103.423 18.0923 106.615 18.0923C109.807 18.0923 112.489 20.2892 113.255 23.2615H99.9757Z"
              fill="white"/>
    </g>
    <path d="M251.364 7.92045V36.625H250.043V7.92045H251.364ZM273.259 31L268.477 13.5455H270.097L274.051 28.554H274.188L278.142 13.5455H279.983L283.938 28.554H284.074L288.028 13.5455H289.656L284.875 31H283.17L279.122 16.196H279.011L274.963 31H273.259ZM296.295 31.2727C295.074 31.2727 294.017 30.9886 293.125 30.4205C292.233 29.8466 291.543 29.054 291.054 28.0426C290.571 27.0256 290.33 25.8551 290.33 24.5312C290.33 23.2131 290.571 22.0426 291.054 21.0199C291.543 19.9915 292.216 19.1875 293.074 18.608C293.938 18.0227 294.935 17.7301 296.065 17.7301C296.776 17.7301 297.46 17.8608 298.119 18.1222C298.778 18.3778 299.369 18.7727 299.892 19.3068C300.42 19.8352 300.838 20.5028 301.145 21.3097C301.452 22.1108 301.605 23.0597 301.605 24.1562V24.9062H291.378V23.5682H300.054C300.054 22.7273 299.884 21.9716 299.543 21.3011C299.207 20.625 298.739 20.0909 298.136 19.6989C297.54 19.3068 296.849 19.1108 296.065 19.1108C295.236 19.1108 294.506 19.3324 293.875 19.7756C293.244 20.2187 292.75 20.804 292.392 21.5312C292.04 22.2585 291.861 23.054 291.855 23.9176V24.7188C291.855 25.7585 292.034 26.6676 292.392 27.446C292.756 28.2187 293.27 28.8182 293.935 29.2443C294.599 29.6705 295.386 29.8835 296.295 29.8835C296.915 29.8835 297.457 29.7869 297.923 29.5938C298.395 29.4006 298.79 29.142 299.108 28.8182C299.432 28.4886 299.676 28.1278 299.841 27.7358L301.281 28.2045C301.082 28.7557 300.756 29.2642 300.301 29.7301C299.852 30.196 299.29 30.571 298.614 30.8551C297.943 31.1335 297.17 31.2727 296.295 31.2727ZM305.263 31V13.5455H306.789V20.4062H306.925C307.096 20.0142 307.34 19.6108 307.658 19.196C307.982 18.7812 308.406 18.4347 308.928 18.1562C309.457 17.8722 310.121 17.7301 310.923 17.7301C311.996 17.7301 312.94 18.0142 313.752 18.5824C314.565 19.1449 315.198 19.9347 315.653 20.9517C316.107 21.9631 316.335 23.142 316.335 24.4886C316.335 25.8409 316.107 27.0256 315.653 28.0426C315.204 29.0597 314.573 29.8523 313.761 30.4205C312.954 30.9886 312.016 31.2727 310.948 31.2727C310.153 31.2727 309.488 31.1307 308.954 30.8466C308.425 30.5625 307.999 30.2131 307.675 29.7983C307.352 29.3778 307.102 28.9687 306.925 28.571H306.738V31H305.263ZM306.763 24.4631C306.763 25.5199 306.92 26.4574 307.232 27.2756C307.55 28.0881 308.005 28.7273 308.596 29.1932C309.192 29.6534 309.914 29.8835 310.761 29.8835C311.63 29.8835 312.366 29.6449 312.968 29.1676C313.57 28.6847 314.028 28.0341 314.34 27.2159C314.653 26.3977 314.809 25.4801 314.809 24.4631C314.809 23.4574 314.653 22.5511 314.34 21.7443C314.033 20.9375 313.579 20.2983 312.977 19.8267C312.374 19.3494 311.636 19.1108 310.761 19.1108C309.908 19.1108 309.184 19.3409 308.587 19.8011C307.996 20.2557 307.545 20.8864 307.232 21.6932C306.92 22.4943 306.763 23.4176 306.763 24.4631ZM319.982 31V13.5455H325.616C326.854 13.5455 327.888 13.7699 328.718 14.2188C329.553 14.6619 330.181 15.2784 330.602 16.0682C331.028 16.8523 331.241 17.7528 331.241 18.7699C331.241 19.7869 331.028 20.6847 330.602 21.4631C330.181 22.2415 329.556 22.8494 328.727 23.2869C327.897 23.7244 326.869 23.9432 325.641 23.9432H320.843V22.4858H325.599C326.508 22.4858 327.263 22.3352 327.866 22.0341C328.474 21.733 328.925 21.304 329.221 20.7472C329.522 20.1903 329.673 19.5312 329.673 18.7699C329.673 18.0085 329.522 17.3437 329.221 16.7756C328.92 16.2017 328.465 15.7585 327.857 15.446C327.255 15.1335 326.494 14.9773 325.573 14.9773H321.576V31H319.982ZM327.678 23.125L331.974 31H330.133L325.88 23.125H327.678ZM334.066 14.9773V13.5455H346.722V14.9773H341.191V31H339.597V14.9773H334.066ZM363.254 19H361.652C361.533 18.4034 361.317 17.8523 361.004 17.3466C360.697 16.8352 360.311 16.3892 359.845 16.0085C359.379 15.6278 358.851 15.3324 358.26 15.1222C357.669 14.9119 357.03 14.8068 356.342 14.8068C355.24 14.8068 354.234 15.0937 353.325 15.6676C352.422 16.2415 351.697 17.0852 351.152 18.1989C350.612 19.3068 350.342 20.6648 350.342 22.2727C350.342 23.892 350.612 25.2557 351.152 26.3636C351.697 27.4716 352.422 28.3125 353.325 28.8864C354.234 29.4545 355.24 29.7386 356.342 29.7386C357.03 29.7386 357.669 29.6335 358.26 29.4233C358.851 29.2131 359.379 28.9205 359.845 28.5455C360.311 28.1648 360.697 27.7187 361.004 27.2074C361.317 26.696 361.533 26.142 361.652 25.5455H363.254C363.112 26.3466 362.845 27.0938 362.453 27.7869C362.067 28.4744 361.572 29.0767 360.97 29.5938C360.374 30.1108 359.686 30.5142 358.908 30.804C358.129 31.0937 357.274 31.2386 356.342 31.2386C354.876 31.2386 353.575 30.8722 352.439 30.1392C351.303 29.4006 350.411 28.3608 349.763 27.0199C349.121 25.679 348.8 24.0966 348.8 22.2727C348.8 20.4489 349.121 18.8665 349.763 17.5256C350.411 16.1847 351.303 15.1477 352.439 14.4148C353.575 13.6761 354.876 13.3068 356.342 13.3068C357.274 13.3068 358.129 13.4517 358.908 13.7415C359.686 14.0256 360.374 14.429 360.97 14.9517C361.572 15.4688 362.067 16.071 362.453 16.7585C362.845 17.446 363.112 18.1932 363.254 19Z"
          fill="white"/>
    <defs>
        <clipPath id="clip0_52_3525">
            <rect width="232" height="42" fill="white"/>
        </clipPath>
    </defs>
</svg>
