<svg width="146" height="48" viewBox="0 0 146 48" fill="none" xmlns="http://www.w3.org/2000/svg">
    <rect width="146" height="48" fill="#02052E"/>
    <g clip-path="url(#clip0_6_856)">
        <path d="M24 47.5C36.9787 47.5 47.5 36.9787 47.5 24C47.5 11.0213 36.9787 0.5 24 0.5C11.0213 0.5 0.5 11.0213 0.5 24C0.5 36.9787 11.0213 47.5 24 47.5Z"
              fill="white" stroke="#E5E5E6"/>
        <path d="M30.0528 15.0776L25.8722 21.2417C25.8127 21.3305 25.7875 21.4377 25.8014 21.5435C25.8153 21.6492 25.8673 21.7464 25.9477 21.8171C26.0282 21.8878 26.1317 21.9271 26.2391 21.9278C26.3465 21.9285 26.4505 21.8906 26.5319 21.8211L30.6472 18.2762C30.6713 18.2548 30.7012 18.2408 30.7332 18.236C30.7652 18.2311 30.7979 18.2356 30.8274 18.2489C30.8568 18.2622 30.8817 18.2838 30.8991 18.3109C30.9164 18.3381 30.9254 18.3696 30.925 18.4018V29.4997C30.925 29.5337 30.9144 29.5668 30.8948 29.5946C30.8752 29.6224 30.8474 29.6436 30.8152 29.6552C30.7831 29.6668 30.7481 29.6683 30.7151 29.6595C30.682 29.6506 30.6525 29.6319 30.6306 29.6059L18.1917 14.8183C17.9916 14.5837 17.7425 14.3951 17.4616 14.2658C17.1807 14.1365 16.8749 14.0694 16.5653 14.0693H16.1306C15.5655 14.0693 15.0236 14.2923 14.624 14.6891C14.2245 15.0859 14 15.624 14 16.1852V31.8155C14 32.3767 14.2245 32.9149 14.624 33.3117C15.0236 33.7085 15.5655 33.9314 16.1306 33.9314C16.4949 33.9315 16.8532 33.8389 17.1712 33.6624C17.4892 33.4858 17.7564 33.2313 17.9472 32.9231L22.1278 26.759C22.1873 26.6702 22.2125 26.563 22.1986 26.4573C22.1847 26.3515 22.1327 26.2543 22.0523 26.1836C21.9718 26.113 21.8683 26.0737 21.7609 26.0729C21.6535 26.0722 21.5495 26.1101 21.4681 26.1797L17.3528 29.7245C17.3287 29.7459 17.2988 29.7599 17.2668 29.7648C17.2348 29.7696 17.2021 29.7651 17.1726 29.7518C17.1432 29.7385 17.1183 29.717 17.1009 29.6898C17.0836 29.6627 17.0746 29.6311 17.075 29.599V18.4983C17.075 18.4643 17.0856 18.4312 17.1052 18.4034C17.1248 18.3755 17.1526 18.3544 17.1848 18.3428C17.2169 18.3312 17.2519 18.3297 17.2849 18.3385C17.318 18.3473 17.3475 18.366 17.3694 18.3921L29.8069 33.1824C30.007 33.4171 30.2562 33.6056 30.537 33.7349C30.8179 33.8643 31.1237 33.9313 31.4333 33.9314H31.8681C32.148 33.9316 32.4252 33.877 32.6838 33.7707C32.9425 33.6645 33.1775 33.5087 33.3755 33.3122C33.5735 33.1157 33.7305 32.8824 33.8377 32.6256C33.9448 32.3688 34 32.0935 34 31.8155V16.1852C34 15.624 33.7755 15.0859 33.376 14.6891C32.9764 14.2923 32.4345 14.0693 31.8694 14.0693C31.5051 14.0692 31.1468 14.1619 30.8288 14.3384C30.5108 14.5149 30.2436 14.7694 30.0528 15.0776Z"
              fill="#111618"/>
    </g>
    <circle cx="62" cy="24" r="2" fill="#0072CD"/>
    <path d="M77.7699 13.6364H83.0795L88.6875 27.3182H88.9261L94.5341 13.6364H99.8438V34H95.6676V20.7457H95.4986L90.2287 33.9006H87.3849L82.1151 20.696H81.946V34H77.7699V13.6364ZM110.272 34.2983C108.701 34.2983 107.348 33.9801 106.215 33.3438C105.088 32.7008 104.22 31.7926 103.61 30.6193C103 29.4394 102.695 28.044 102.695 26.4332C102.695 24.8622 103 23.4834 103.61 22.2969C104.22 21.1103 105.078 20.1856 106.185 19.5227C107.299 18.8598 108.605 18.5284 110.103 18.5284C111.11 18.5284 112.048 18.6908 112.917 19.0156C113.792 19.3338 114.554 19.8144 115.203 20.4574C115.86 21.1004 116.37 21.9091 116.735 22.8835C117.099 23.8513 117.282 24.9848 117.282 26.2841V27.4474H104.385V24.8224H113.294C113.294 24.2126 113.162 23.6723 112.897 23.2017C112.632 22.7311 112.264 22.3632 111.793 22.098C111.329 21.8262 110.789 21.6903 110.172 21.6903C109.529 21.6903 108.959 21.8395 108.462 22.1378C107.971 22.4295 107.587 22.8239 107.309 23.321C107.03 23.8116 106.888 24.3584 106.881 24.9616V27.4574C106.881 28.2131 107.02 28.866 107.299 29.4162C107.584 29.9664 107.985 30.3906 108.502 30.6889C109.019 30.9872 109.632 31.1364 110.341 31.1364C110.812 31.1364 111.243 31.0701 111.634 30.9375C112.025 30.8049 112.36 30.6061 112.638 30.3409C112.917 30.0758 113.129 29.7509 113.275 29.3665L117.192 29.625C116.993 30.5663 116.586 31.3883 115.969 32.0909C115.359 32.7869 114.57 33.3305 113.603 33.7216C112.641 34.1061 111.531 34.2983 110.272 34.2983ZM127.006 34.2983C125.435 34.2983 124.083 33.9801 122.949 33.3438C121.822 32.7008 120.954 31.7926 120.344 30.6193C119.734 29.4394 119.429 28.044 119.429 26.4332C119.429 24.8622 119.734 23.4834 120.344 22.2969C120.954 21.1103 121.812 20.1856 122.919 19.5227C124.033 18.8598 125.339 18.5284 126.837 18.5284C127.845 18.5284 128.783 18.6908 129.651 19.0156C130.526 19.3338 131.288 19.8144 131.938 20.4574C132.594 21.1004 133.105 21.9091 133.469 22.8835C133.834 23.8513 134.016 24.9848 134.016 26.2841V27.4474H121.12V24.8224H130.029C130.029 24.2126 129.896 23.6723 129.631 23.2017C129.366 22.7311 128.998 22.3632 128.527 22.098C128.063 21.8262 127.523 21.6903 126.907 21.6903C126.264 21.6903 125.694 21.8395 125.196 22.1378C124.706 22.4295 124.321 22.8239 124.043 23.321C123.765 23.8116 123.622 24.3584 123.615 24.9616V27.4574C123.615 28.2131 123.755 28.866 124.033 29.4162C124.318 29.9664 124.719 30.3906 125.236 30.6889C125.753 30.9872 126.366 31.1364 127.076 31.1364C127.546 31.1364 127.977 31.0701 128.368 30.9375C128.759 30.8049 129.094 30.6061 129.373 30.3409C129.651 30.0758 129.863 29.7509 130.009 29.3665L133.926 29.625C133.728 30.5663 133.32 31.3883 132.703 32.0909C132.094 32.7869 131.305 33.3305 130.337 33.7216C129.376 34.1061 128.266 34.2983 127.006 34.2983ZM144.904 18.7273V21.9091H135.706V18.7273H144.904ZM137.794 15.0682H142.03V29.3068C142.03 29.6979 142.09 30.0028 142.209 30.2216C142.328 30.4337 142.494 30.5829 142.706 30.669C142.925 30.7552 143.177 30.7983 143.462 30.7983C143.661 30.7983 143.86 30.7817 144.059 30.7486C144.257 30.7088 144.41 30.679 144.516 30.6591L145.182 33.8111C144.97 33.8774 144.672 33.9536 144.287 34.0398C143.903 34.1326 143.435 34.1889 142.885 34.2088C141.864 34.2486 140.97 34.1127 140.201 33.8011C139.438 33.4896 138.845 33.0057 138.421 32.3494C137.997 31.6932 137.788 30.8646 137.794 29.8636V15.0682Z"
          fill="white"/>
    <defs>
        <clipPath id="clip0_6_856">
            <rect width="48" height="48" fill="white"/>
        </clipPath>
    </defs>
</svg>
