<svg width="16" height="16" viewBox="0 0 16 16" fill="none" xmlns="http://www.w3.org/2000/svg">
    <path d="M13.4847 4.75257C13.323 4.59085 13.1036 4.5 12.8748 4.5C12.6461 4.5 12.4267 4.59085 12.2649 4.75257L7.99483 9.02269L3.72472 4.75257C3.56202 4.59543 3.34411 4.50848 3.11793 4.51045C2.89174 4.51241 2.67538 4.60314 2.51544 4.76308C2.3555 4.92302 2.26477 5.13939 2.26281 5.36557C2.26084 5.59175 2.34779 5.80966 2.50493 5.97236L7.38494 10.8524C7.54671 11.0141 7.76609 11.1049 7.99483 11.1049C8.22357 11.1049 8.44295 11.0141 8.60472 10.8524L13.4847 5.97236C13.6465 5.81059 13.7373 5.59121 13.7373 5.36247C13.7373 5.13372 13.6465 4.91434 13.4847 4.75257Z"
          fill="white"/>
</svg>
