<svg width="16" height="16" viewBox="0 0 16 16" fill="none" xmlns="http://www.w3.org/2000/svg">
    <path d="M13.4847 4.75257C13.3229 4.59085 13.1035 4.5 12.8748 4.5C12.646 4.5 12.4267 4.59085 12.2649 4.75257L7.99479 9.02269L3.72467 4.75257C3.56197 4.59543 3.34407 4.50848 3.11788 4.51045C2.8917 4.51241 2.67533 4.60314 2.51539 4.76308C2.35545 4.92302 2.26473 5.13939 2.26276 5.36557C2.2608 5.59175 2.34775 5.80966 2.50488 5.97236L7.38489 10.8524C7.54666 11.0141 7.76604 11.1049 7.99479 11.1049C8.22353 11.1049 8.44291 11.0141 8.60468 10.8524L13.4847 5.97236C13.6464 5.81059 13.7373 5.59121 13.7373 5.36247C13.7373 5.13372 13.6464 4.91434 13.4847 4.75257Z"
          fill="#161F41"/>
</svg>
