<svg width="16" height="17" viewBox="0 0 16 17" fill="none" xmlns="http://www.w3.org/2000/svg">
    <g clip-path="url(#clip0_224_1471)">
        <path fill-rule="evenodd" clip-rule="evenodd" d="M12.8913 9.13678L14.5493 7.47851C16.0732 5.95488 16.0733 3.47458 14.5493 1.95101C13.0256 0.42693 10.5454 0.426869 9.02149 1.95097L5.77488 5.19758C4.25092 6.72122 4.2509 9.2015 5.77485 10.7251C5.94239 10.8927 6.12192 11.0415 6.31049 11.1722L7.54497 9.93752C7.33895 9.83477 7.14564 9.69784 6.97394 9.52612M6.97394 9.52612C6.11093 8.66309 6.11086 7.25929 6.97394 6.39643L10.2205 3.14983C11.0836 2.28679 12.4874 2.28674 13.3502 3.14983C14.2133 4.01288 14.2133 5.41653 13.3503 6.27951L12.5366 7.09325C12.7866 7.74945 12.9046 8.44417 12.8913 9.13678" fill="#96B9EB"/>
        <path fill-rule="evenodd" clip-rule="evenodd" d="M8.46291 7.05498C8.6688 7.15764 8.86214 7.29443 9.034 7.46624C9.89706 8.32929 9.89711 9.733 9.03402 10.596L5.78712 13.8426C4.92407 14.7056 3.5204 14.7056 2.65742 13.8426C1.79437 12.9795 1.79435 11.5758 2.65744 10.7129L3.47115 9.89925C3.22111 9.24305 3.1032 8.54822 3.11669 7.85557L1.45888 9.51357C-0.0652034 11.0373 -0.0652498 13.5175 1.45885 15.0414C2.98248 16.5653 5.46279 16.5654 6.98669 15.0414L10.233 11.7948C11.7569 10.2711 11.7567 7.7909 10.233 6.26731C10.0657 6.09973 9.88612 5.95085 9.69752 5.82019L8.46291 7.05498Z" fill="#96B9EB"/>
    </g>
    <defs>
        <clipPath id="clip0_224_1471">
            <rect width="16" height="16" fill="white" transform="translate(0 0.5)"/>
        </clipPath>
    </defs>
</svg>
