<svg width="94" height="17" viewBox="0 0 94 17" fill="none" xmlns="http://www.w3.org/2000/svg">
    <g clip-path="url(#clip0_1_371)">
        <path fill-rule="evenodd" clip-rule="evenodd"
              d="M38.0759 5.70153V7.5323H36.317H35.9031V7.95077V8.73538V11.2985V11.9785V12.4492C35.9031 12.6585 36.1101 12.8677 36.317 12.8677H36.7826H38.1277V13.7569V14.6461H36.1618C35.0237 14.6461 34.0407 13.7046 34.0407 12.5015V11.4031V10.9323V7.63692H32.437V5.80615H34.0407V3.76615L35.9549 3.19077V5.70153H38.0759Z"
              fill="white"/>
        <path fill-rule="evenodd" clip-rule="evenodd"
              d="M56.5966 5.49231C54.0616 5.49231 51.9923 7.58462 51.9923 10.1477C51.9923 12.7108 54.0616 14.8031 56.5966 14.8031C58.0968 14.8031 59.4419 14.0708 60.3214 12.92L58.8729 11.7692C58.3555 12.5015 57.5278 12.92 56.5966 12.92C55.355 12.92 54.2686 12.0831 53.9064 10.9323H59.235H60.7353H61.0974C61.1491 10.6708 61.1491 10.4092 61.1491 10.0954C61.2009 7.58462 59.1315 5.49231 56.5966 5.49231ZM53.9064 9.41539C54.2168 8.21231 55.3032 7.32308 56.5966 7.32308C57.8899 7.32308 58.9763 8.21231 59.2867 9.41539H53.9064Z"
              fill="white"/>
        <path fill-rule="evenodd" clip-rule="evenodd"
              d="M29.5399 6.95693V2.40616H31.454V14.5939H29.5399V13.3385C28.8156 14.3323 27.7809 14.8554 26.4359 14.8554C25.246 14.8554 24.2113 14.3846 23.3319 13.4954C22.4524 12.6062 22.0385 11.5077 22.0385 10.1477C22.0385 8.7877 22.4524 7.74154 23.3319 6.8C24.2113 5.91077 25.1943 5.44 26.4359 5.44C27.7809 5.49231 28.8156 5.96308 29.5399 6.95693ZM24.7287 12.1877C25.246 12.7108 25.9185 12.9723 26.6945 12.9723C27.4705 12.9723 28.1431 12.7108 28.6604 12.1877C29.1778 11.6646 29.4364 10.9846 29.4364 10.1477C29.4364 9.31077 29.1778 8.63077 28.6604 8.1077C28.1431 7.58462 27.4705 7.27077 26.6945 7.27077C25.9185 7.27077 25.246 7.53231 24.7287 8.1077C24.2113 8.63077 23.9527 9.31077 23.9527 10.1477C23.9527 10.9323 24.2113 11.6646 24.7287 12.1877Z"
              fill="white"/>
        <path fill-rule="evenodd" clip-rule="evenodd"
              d="M90.6373 5.49231C91.6202 5.49231 92.448 5.80616 93.0688 6.48616C93.6896 7.11385 94 8.00308 94 9.10154V14.5938H92.0859V9.20616C92.0859 8.57846 91.9307 8.10769 91.6203 7.79385C91.3099 7.42769 90.896 7.27077 90.3786 7.27077C89.7578 7.27077 89.2922 7.48 88.9818 7.84616C88.6197 8.26462 88.4645 8.84 88.4645 9.57231V14.5415H86.5504V9.20616C86.5504 8.57846 86.3952 8.10769 86.1365 7.79385C85.8261 7.48 85.464 7.27077 84.8949 7.27077C84.3258 7.27077 83.8602 7.48 83.4981 7.89846C83.1359 8.31693 82.9807 8.89231 82.9807 9.62462V14.5938H81.0666V5.70154H82.9807V6.74769C83.5498 5.85846 84.3775 5.44 85.5157 5.44C86.6538 5.44 87.4816 5.91077 87.9989 6.85231C88.5162 5.96308 89.4474 5.49231 90.6373 5.49231Z"
              fill="white"/>
        <path d="M50.8541 2.40616H48.94V14.5938H50.8541V2.40616Z" fill="white"/>
        <path fill-rule="evenodd" clip-rule="evenodd"
              d="M0.776004 7.68923H4.91469C5.63897 7.68923 6.3115 7.37538 6.82884 6.90462C7.29444 6.43385 7.60484 5.75385 7.60484 4.96923V0.784615V0H8.38085H16.0374H16.8134V0.784615V8.47385V9.25846H16.0374H11.8987C11.1745 9.25846 10.5019 9.57231 9.98459 10.0431C9.51899 10.5138 9.20858 11.1938 9.20858 11.9785V16.1631V16.9477H8.43258H0.776004H0V16.2154V8.52615V7.74154V7.68923H0.776004ZM4.91469 9.31077H1.55201V15.4308H7.60484V12.0308C7.60484 10.8277 8.07045 9.78154 8.84645 8.99692C9.62245 8.21231 10.7089 7.74154 11.847 7.74154H15.2097V1.56923H9.20858V4.96923C9.20858 6.17231 8.74298 7.21846 7.96698 8.00308C7.19097 8.84 6.10457 9.31077 4.91469 9.31077Z"
              fill="#33CC66"/>
        <path fill-rule="evenodd" clip-rule="evenodd"
              d="M75.3759 5.49231C72.8409 5.49231 70.7716 7.58462 70.7716 10.1477C70.7716 12.7108 72.8409 14.8031 75.3759 14.8031C77.9108 14.8031 79.9802 12.7108 79.9802 10.1477C79.9802 7.58462 77.9108 5.49231 75.3759 5.49231ZM75.3759 7.32308C76.9279 7.32308 78.1695 8.57846 78.1695 10.1477C78.1695 11.7169 76.9279 12.9723 75.3759 12.9723C73.8239 12.9723 72.5823 11.7169 72.5823 10.1477C72.5823 8.57846 73.8239 7.32308 75.3759 7.32308Z"
              fill="white"/>
        <path fill-rule="evenodd" clip-rule="evenodd"
              d="M66.5812 5.49231C64.0462 5.49231 61.9769 7.58462 61.9769 10.1477C61.9769 12.7108 64.0462 14.8031 66.5812 14.8031C68.0815 14.8031 69.4783 14.0708 70.306 12.92L68.9092 11.7169C68.3919 12.4492 67.5641 12.9723 66.5812 12.9723C65.0292 12.9723 63.7876 11.7169 63.7876 10.1477C63.7876 8.57846 65.0292 7.32308 66.5812 7.32308C67.5641 7.32308 68.3919 7.79385 68.9092 8.57846L70.306 7.37539C69.4783 6.22462 68.1332 5.49231 66.5812 5.49231Z"
              fill="white"/>
        <path fill-rule="evenodd" clip-rule="evenodd"
              d="M43.1976 5.49231C40.6626 5.49231 38.5933 7.58462 38.5933 10.1477C38.5933 12.7108 40.6626 14.8031 43.1976 14.8031C44.6979 14.8031 46.0429 14.0708 46.9224 12.92L45.4739 11.7692C44.9565 12.5015 44.1288 12.92 43.1976 12.92C41.956 12.92 40.8696 12.0831 40.5074 10.9323H45.836H47.3363H47.6984C47.7501 10.6708 47.7501 10.4092 47.7501 10.0954C47.8536 7.58462 45.7843 5.49231 43.1976 5.49231ZM40.5074 9.41539C40.8178 8.21231 41.9042 7.32308 43.1976 7.32308C44.4909 7.32308 45.5773 8.21231 45.8877 9.41539H40.5074Z"
              fill="white"/>
    </g>
    <defs>
        <clipPath id="clip0_1_371">
            <rect width="94" height="17" fill="white"/>
        </clipPath>
    </defs>
</svg>
