<svg width="16" height="17" viewBox="0 0 16 17" fill="none" xmlns="http://www.w3.org/2000/svg">
    <path d="M12.1347 3.81882C12.3421 3.61207 12.618 3.49776 12.9043 3.50003C13.1906 3.5023 13.4649 3.62096 13.6692 3.83098C13.8736 4.041 13.992 4.32594 13.9996 4.62569C14.0072 4.92543 13.9033 5.21653 13.7098 5.43756L7.83628 13.1305C7.73529 13.2444 7.61339 13.3358 7.47788 13.3993C7.34238 13.4627 7.19604 13.4969 7.04763 13.4998C6.89922 13.5027 6.75177 13.4742 6.61412 13.416C6.47646 13.3579 6.35141 13.2712 6.24646 13.1613L2.35139 9.08205C2.24292 8.9762 2.15592 8.84855 2.09558 8.70672C2.03523 8.56489 2.00279 8.41178 2.00017 8.25653C1.99756 8.10128 2.02483 7.94707 2.08035 7.80309C2.13588 7.65912 2.21853 7.52834 2.32337 7.41854C2.42821 7.30875 2.55309 7.22219 2.69056 7.16404C2.82803 7.10588 2.97528 7.07732 3.12352 7.08006C3.27176 7.0828 3.41796 7.11678 3.55338 7.17998C3.68881 7.24318 3.8107 7.33429 3.91177 7.44789L6.99426 10.6746L12.1067 3.85274C12.1159 3.84087 12.1258 3.82954 12.1362 3.81882H12.1347Z"
          fill="#59E970"/>
</svg>
