<svg width="32" height="32" viewBox="0 0 32 32" fill="none" xmlns="http://www.w3.org/2000/svg">
    <path d="M16 29.3333C8.63599 29.3333 2.66666 23.364 2.66666 16C2.66666 8.636 8.63599 2.66667 16 2.66667C23.364 2.66667 29.3333 8.636 29.3333 16C29.3333 23.364 23.364 29.3333 16 29.3333ZM9.33332 16C9.33332 17.7681 10.0357 19.4638 11.2859 20.714C12.5362 21.9643 14.2319 22.6667 16 22.6667C17.7681 22.6667 19.4638 21.9643 20.714 20.714C21.9643 19.4638 22.6667 17.7681 22.6667 16H20C20 17.0609 19.5786 18.0783 18.8284 18.8284C18.0783 19.5786 17.0609 20 16 20C14.9391 20 13.9217 19.5786 13.1716 18.8284C12.4214 18.0783 12 17.0609 12 16H9.33332Z"
          fill="#96B9EB"/>
</svg>
