<svg width="25" height="17" viewBox="0 0 25 17" fill="none" xmlns="http://www.w3.org/2000/svg">
    <path d="M20.2905 5.4101C18.0669 4.49838 15.1242 3.98633 12.0064 3.98633C8.88859 3.98633 5.94593 4.48974 3.72236 5.40147C2.728 5.77546 1.81628 6.34025 1.03878 7.06418C0.413163 7.62601 0.0433916 8.41851 0.014679 9.25883V11.2408V11.2406C0.0154815 11.7079 0.201075 12.1557 0.530737 12.4866C0.860593 12.8174 1.30783 13.0044 1.77514 13.0068C1.92723 13.0088 2.07891 12.9914 2.22679 12.9551L7.48496 11.5399V11.5397C7.85956 11.4382 8.1904 11.2161 8.42636 10.9079C8.66232 10.5995 8.79053 10.2223 8.79073 9.83408V8.51669C8.78953 8.31484 8.94101 8.14469 9.14165 8.12262C11.0359 7.92279 12.9458 7.92279 14.84 8.12262C15.0407 8.14469 15.1921 8.31484 15.1909 8.51669V9.83131C15.1913 10.2195 15.3193 10.5967 15.5553 10.9049C15.7913 11.2133 16.1221 11.4352 16.4967 11.537L21.7862 12.9551C22.3171 13.0983 22.8843 12.9862 23.3205 12.6519C23.7569 12.3174 24.0128 11.799 24.0126 11.2492V9.26746C23.9983 7.76023 22.6809 6.39106 20.2906 5.4101L20.2905 5.4101Z" fill="white"/>
</svg>
