<svg width="16" height="16" viewBox="0 0 16 16" fill="none" xmlns="http://www.w3.org/2000/svg">
    <path d="M7.95326 10.6209C9.62063 10.6209 10.9712 9.27196 10.9712 7.60665V3.99598L13.7634 1.20724C13.9855 0.985443 13.9855 0.625416 13.7634 0.40362C13.5468 0.187275 13.1992 0.181825 12.9771 0.387261C12.9716 0.392714 12.9662 0.399942 12.9607 0.405395L1.50782 11.8461C1.50782 11.8461 1.4969 11.857 1.48967 11.8625C1.28398 12.086 1.28943 12.4315 1.50604 12.6478C1.61702 12.7586 1.76265 12.8151 1.90829 12.8151C2.05392 12.8151 2.19955 12.7605 2.31053 12.6478L3.96152 10.9988C4.79889 12.0078 6.01296 12.6969 7.38552 12.8459V14.8621H5.29585C4.98096 14.8621 4.72615 15.1166 4.72615 15.4311C4.72615 15.7456 4.98097 16.0001 5.29585 16.0001H10.7039C11.0188 16.0001 11.2736 15.7456 11.2736 15.4311C11.2736 15.1166 11.0188 14.8621 10.7039 14.8621H8.61424V12.8459C11.2062 12.5623 13.2286 10.3625 13.2286 7.69903V7.2118C13.2286 6.89731 12.9737 6.6428 12.6589 6.6428C12.344 6.6428 12.0891 6.89732 12.0891 7.2118V7.69903C12.0891 9.92613 10.2744 11.7405 8.04269 11.7405H7.95356C6.66304 11.7405 5.51079 11.1333 4.76992 10.1916L5.54164 9.42083C6.09321 10.1499 6.96689 10.6225 7.95343 10.6225L7.95326 10.6209Z"
          fill="#161F41"/>
    <path d="M7.95325 0.000244141C6.28588 0.000244141 4.9353 1.34916 4.9353 3.01448V6.81409L10.4435 1.31271C9.89929 0.520126 8.98715 0.000244141 7.95325 0.000244141Z"
          fill="#161F41"/>
    <path d="M3.91067 7.8377C3.91067 7.7923 3.90889 7.745 3.90889 7.69947V7.21225C3.90889 6.89775 3.65407 6.64325 3.33919 6.64325C3.02432 6.64325 2.76949 6.89776 2.76949 7.21225V7.69947C2.76949 8.09398 2.81494 8.47761 2.89875 8.84841L3.91067 7.8377Z"
          fill="#161F41"/>
</svg>
