<svg width="16" height="16" viewBox="0 0 16 16" fill="none" xmlns="http://www.w3.org/2000/svg">
    <path d="M7.95721 10.6194C9.62301 10.6194 10.9723 9.27063 10.9723 7.60555V3.01381C10.9723 1.34873 9.62301 0 7.95721 0C6.29141 0 4.94209 1.34873 4.94209 3.01381V7.60555C4.94209 9.27063 6.29141 10.6194 7.95721 10.6194Z"
          fill="#96B9EB"/>
    <path d="M12.6581 6.64403C12.3435 6.64403 12.0889 6.89851 12.0889 7.21295V7.70011C12.0889 9.9269 10.2758 11.741 8.04627 11.741H7.95722C5.72771 11.741 3.91458 9.92872 3.91458 7.70011V7.21295C3.91458 6.8985 3.65999 6.64403 3.34541 6.64403C3.03083 6.64403 2.77625 6.89851 2.77625 7.21295V7.70011C2.77625 10.3631 4.79659 12.5606 7.38621 12.8463V14.8622H5.29851C4.98392 14.8622 4.72934 15.1166 4.72934 15.4311C4.72934 15.7455 4.98393 16 5.29851 16H10.7015C11.0161 16 11.2706 15.7455 11.2706 15.4311C11.2706 15.1166 11.0161 14.8622 10.7015 14.8622H8.61377V12.8463C11.2033 12.5627 13.2237 10.3632 13.2237 7.70011V7.21295C13.2237 6.8985 12.9691 6.64403 12.6546 6.64403H12.6581Z"
          fill="#96B9EB"/>
</svg>
