<svg width="40" height="40" viewBox="0 0 40 40" fill="none" xmlns="http://www.w3.org/2000/svg">
    <rect width="40" height="40" rx="20" fill="#B30E0E"/>
    <path d="M19.9532 22.6206C21.6206 22.6206 22.9712 21.2717 22.9712 19.6064V15.9957L25.7634 13.207C25.9854 12.9852 25.9854 12.6252 25.7634 12.4034C25.5468 12.187 25.1991 12.1816 24.9771 12.387C24.9716 12.3925 24.9661 12.3997 24.9607 12.4052L13.5078 23.8459C13.5078 23.8459 13.4969 23.8568 13.4896 23.8622C13.2839 24.0858 13.2894 24.4312 13.506 24.6476C13.617 24.7584 13.7626 24.8148 13.9083 24.8148C14.0539 24.8148 14.1995 24.7603 14.3105 24.6476L15.9615 22.9986C16.7989 24.0075 18.0129 24.6966 19.3855 24.8457V26.8618H17.2958C16.9809 26.8618 16.7261 27.1164 16.7261 27.4308C16.7261 27.7453 16.9809 27.9998 17.2958 27.9998H22.7039C23.0188 27.9998 23.2736 27.7453 23.2736 27.4308C23.2736 27.1164 23.0188 26.8618 22.7039 26.8618H20.6142V24.8457C23.2062 24.5621 25.2285 22.3623 25.2285 19.6988V19.2116C25.2285 18.8971 24.9737 18.6426 24.6588 18.6426C24.3439 18.6426 24.0891 18.8971 24.0891 19.2116V19.6988C24.0891 21.9259 22.2743 23.7402 20.0427 23.7402H19.9535C18.663 23.7402 17.5108 23.1331 16.7699 22.1913L17.5416 21.4206C18.0932 22.1496 18.9669 22.6223 19.9534 22.6223L19.9532 22.6206Z"
          fill="white"/>
    <path d="M19.9532 12C18.2859 12 16.9353 13.3489 16.9353 15.0142V18.8138L22.4434 13.3125C21.8993 12.5199 20.9871 12 19.9532 12Z"
          fill="white"/>
    <path d="M15.9106 19.8375C15.9106 19.7921 15.9089 19.7448 15.9089 19.6992V19.212C15.9089 18.8975 15.654 18.643 15.3392 18.643C15.0243 18.643 14.7695 18.8975 14.7695 19.212V19.6992C14.7695 20.0937 14.8149 20.4774 14.8987 20.8482L15.9106 19.8375Z"
          fill="white"/>
</svg>
