<svg width="40" height="40" viewBox="0 0 40 40" fill="none" xmlns="http://www.w3.org/2000/svg">
    <rect width="40" height="40" rx="20" fill="#B30E0E"/>
    <path d="M26.7931 13.1846C27.0055 12.9674 27.0016 12.6192 26.7845 12.4068C26.5673 12.1944 26.2191 12.1983 26.0067 12.4154L22.6891 15.8074L12.6068 26.1156C12.3944 26.3328 12.3983 26.681 12.6154 26.8934C12.8326 27.1058 13.1808 27.1019 13.3932 26.8848L15.2364 25.0002H21.6C22.2364 25.0002 22.8469 24.7519 23.297 24.3099C23.7472 23.8678 24 23.2682 24 22.643V22.4623L26.7921 24.1046C26.9547 24.1993 27.1463 24.2343 27.3328 24.2035C27.5193 24.1727 27.6887 24.078 27.8109 23.9361C27.933 23.7943 28 23.6146 28 23.4289V15.5714C28 15.3856 27.933 15.2062 27.8109 15.0644C27.6888 14.9224 27.5193 14.8277 27.3328 14.7969C27.1463 14.7662 26.9547 14.8013 26.7921 14.896L24 16.5382V16.0402L26.7931 13.1846Z"
          fill="white"/>
    <path d="M12 22.643V16.3574C12 15.7322 12.2529 15.1326 12.7029 14.6905C13.153 14.2485 13.7635 14.0002 14.4 14.0002H21.6C21.9542 14.0002 22.3004 14.0771 22.6154 14.2215L12.6011 24.2035C12.2149 23.774 12 23.2194 12 22.643Z"
          fill="white"/>
</svg>
