<svg width="16" height="16" viewBox="0 0 16 16" fill="none" xmlns="http://www.w3.org/2000/svg">
    <path d="M11.6287 7.46695C12.4744 7.46695 13.3824 6.34326 13.3824 5.18894C13.3824 4.03445 12.5972 3.28645 11.6287 3.28645C10.6602 3.28645 9.875 4.03434 9.875 5.18894C9.875 6.34344 10.7555 7.46695 11.6287 7.46695Z" fill="#96B9EB"/>
    <path d="M6.16964 7.91079C7.46643 7.91079 8.85882 6.18734 8.85882 4.41724C8.85882 2.64682 7.65502 1.49997 6.16964 1.49997C4.68455 1.49997 3.48047 2.647 3.48047 4.41724C3.48047 6.18738 4.83045 7.91079 6.16964 7.91079Z" fill="#96B9EB"/>
    <path d="M10.9804 10.9246C10.6553 10.2802 10.4185 9.95565 9.97723 9.49698C9.59577 9.10046 8.4573 8.54173 7.72243 8.78751C7.13635 8.91586 7.10859 9.25339 6.16978 9.25339C5.23097 9.25339 5.20306 8.91586 4.6167 8.78751C3.88183 8.54172 2.7435 9.10045 2.3619 9.49698C1.92049 9.95569 1.68366 10.2805 1.35886 10.9246C1.19583 11.2476 0.856225 12.1899 1.06692 12.5952C1.33358 13.1082 1.98268 13.3206 3.7666 13.5386C4.83515 13.6693 6.16978 13.6693 6.16978 13.6693C6.16978 13.6693 7.50402 13.6693 8.57271 13.5386C10.3567 13.3206 11.0053 13.1082 11.2724 12.5952C11.4834 12.1899 11.1435 11.2476 10.9805 10.9246H10.9804Z" fill="#96B9EB"/>
    <path d="M14.766 9.43237C14.5545 9.01207 14.3997 8.8007 14.1119 8.5013C13.8631 8.24266 13.1208 7.87834 12.6416 8.0386C12.2589 8.12233 12.2414 8.34242 11.629 8.34242C11.0168 8.34242 10.9988 8.12232 10.6164 8.0386C10.2312 7.90983 9.67668 8.11998 9.34424 8.34159C9.80142 8.5299 10.2076 8.79145 10.4494 9.04275C10.9517 9.56488 11.2228 9.95047 11.5657 10.6298C11.632 10.7615 11.7216 10.9744 11.8018 11.2206C12.0898 11.216 12.688 11.1992 13.1956 11.137C14.3591 10.9948 14.7824 10.8564 14.9562 10.5218C15.0939 10.2574 14.8725 9.64289 14.7659 9.43234L14.766 9.43237Z" fill="#96B9EB"/>
</svg>
