<svg width="16" height="16" viewBox="0 0 16 16" fill="none" xmlns="http://www.w3.org/2000/svg">
    <path d="M14.7931 1.18433C15.0055 0.967177 15.0016 0.618957 14.7845 0.406562C14.5673 0.194167 14.2191 0.198025 14.0067 0.41518L10.6891 3.80716L0.606806 14.1154C0.394411 14.3325 0.398269 14.6807 0.615424 14.8931C0.832579 15.1055 1.1808 15.1017 1.39319 14.8845L3.23643 13H9.60003C10.2364 13 10.8469 12.7516 11.297 12.3097C11.7472 11.8676 12 11.268 12 10.6428V10.4621L14.7921 12.1043C14.9547 12.1991 15.1463 12.234 15.3328 12.2033C15.5193 12.1725 15.6887 12.0778 15.8109 11.9358C15.933 11.7941 16 11.6144 16 11.4286V3.57111C16 3.3854 15.933 3.20592 15.8109 3.06412C15.6888 2.92219 15.5193 2.82748 15.3328 2.7967C15.1463 2.76592 14.9547 2.80104 14.7921 2.89575L12 4.53791V4.03997L14.7931 1.18433Z"
          fill="#161F41"/>
    <path d="M0 10.6428V4.35714C0 3.73195 0.252859 3.13238 0.702861 2.69027C1.153 2.2483 1.76346 1.99995 2.40001 1.99995H9.60004C9.95424 1.99995 10.3004 2.07688 10.6154 2.22129L0.601063 12.2032C0.214906 11.7737 0 11.2191 0 10.6428Z"
          fill="#161F41"/>
</svg>
