<svg width="120" height="120" viewBox="0 0 120 120" fill="none" xmlns="http://www.w3.org/2000/svg">
    <g opacity="0.2">
        <path d="M60 110C32.385 110 10 87.6155 10 60.0005C10 32.3855 32.385 10.0005 60 10.0005C87.615 10.0005 110 32.3855 110 60.0005C110 87.6155 87.615 110 60 110ZM35 60.0005C35 66.6309 37.6339 72.9897 42.3223 77.6782C47.0107 82.3666 53.3696 85.0005 60 85.0005C66.6304 85.0005 72.9893 82.3666 77.6777 77.6782C82.3661 72.9897 85 66.6309 85 60.0005H75C75 63.9787 73.4196 67.794 70.6066 70.6071C67.7936 73.4201 63.9782 75.0005 60 75.0005C56.0217 75.0005 52.2064 73.4201 49.3934 70.6071C46.5803 67.794 45 63.9787 45 60.0005H35Z" fill="#96B9EB"/>
    </g>
</svg>
