<svg width="18" height="18" viewBox="0 0 18 18" fill="none" xmlns="http://www.w3.org/2000/svg">
    <path d="M12.0077 1.92883C12.216 2.1372 12.333 2.41976 12.333 2.71439C12.333 3.00902 12.216 3.29158 12.0077 3.49995L6.50767 8.99995L12.0077 14.4999C12.2101 14.7095 12.3221 14.9902 12.3195 15.2815C12.317 15.5728 12.2001 15.8515 11.9941 16.0575C11.7881 16.2635 11.5094 16.3804 11.2181 16.3829C10.9268 16.3854 10.6461 16.2735 10.4366 16.0711L4.151 9.7855C3.9427 9.57714 3.82568 9.29457 3.82568 8.99995C3.82568 8.70532 3.9427 8.42275 4.151 8.21439L10.4366 1.92883C10.6449 1.72053 10.9275 1.60352 11.2221 1.60352C11.5167 1.60352 11.7993 1.72053 12.0077 1.92883Z"
          fill="white"/>
</svg>
