<svg width="45" height="62" viewBox="0 0 45 62" fill="none" xmlns="http://www.w3.org/2000/svg">
    <path opacity="0.7"
          d="M53.7083 17.5046C53.7083 22.9305 49.3097 27.3291 43.8844 27.3291C38.4585 27.3291 34.0605 22.9305 34.0605 17.5046C34.0605 12.0793 38.4585 7.68066 43.8844 7.68066C49.3097 7.68066 53.7083 12.0793 53.7083 17.5046Z"
          fill="white"/>
    <path opacity="0.7"
          d="M57.9718 39.2836C57.3227 34.0005 52.8742 30.0156 47.5918 30.0156H40.2698C37.0256 30.0156 34.0602 31.4987 32.1138 34.0005C34.9867 36.3175 36.9333 39.7465 37.3968 43.7321L38.3239 51.3321C40.1773 51.5177 42.0308 51.6101 43.885 51.6101C48.6115 51.6101 53.0605 51.1466 57.3234 50.2202C58.4354 49.9422 59.0845 48.9227 58.9913 47.8107L57.9718 39.2836Z"
          fill="white"/>
    <path d="M22.6607 35.0205H15.3393C10.0563 35.0205 5.60781 39.0054 4.95938 44.196L3.93987 52.7225C3.84743 53.8345 4.49585 54.854 5.60778 55.132C9.87138 56.0591 14.3198 56.522 19.0462 56.522C23.7732 56.5226 28.1293 56.0591 32.3922 55.1327C33.5042 54.9471 34.1533 53.8352 34.0601 52.7232L33.0406 44.1966C32.3922 39.0061 27.9437 35.0205 22.6607 35.0205L22.6607 35.0205Z"
          fill="white"/>
    <path d="M28.7777 22.5085C28.7777 27.9337 24.3797 32.3324 18.9538 32.3324C13.5279 32.3324 9.12988 27.9337 9.12988 22.5085C9.12988 17.0826 13.5279 12.6846 18.9538 12.6846C24.3797 12.6846 28.7777 17.0826 28.7777 22.5085Z"
          fill="white"/>
</svg>
