<svg width="45" height="62" viewBox="0 0 45 62" fill="none" xmlns="http://www.w3.org/2000/svg">
    <g clip-path="url(#clip0_52_4806)">
        <path d="M31.0131 52.0475C30.1169 52.0475 29.3999 51.3306 29.3999 50.4343V46.8495C29.3999 45.9533 30.1169 45.2364 31.0131 45.2364C31.9093 45.2364 32.6262 45.9533 32.6262 46.8495V50.4343C32.6262 51.3306 31.9093 52.0475 31.0131 52.0475Z"
              fill="white"/>
        <path d="M31.0131 16.6479C30.1169 16.6479 29.3999 15.931 29.3999 15.0348V11.45C29.3999 10.5537 30.1169 9.83678 31.0131 9.83678C31.9093 9.83678 32.6262 10.5537 32.6262 11.45V15.0348C32.6262 15.931 31.9093 16.6479 31.0131 16.6479Z"
              fill="white"/>
        <path opacity="0.7"
              d="M40.7821 48.643C40.5132 48.643 40.2444 48.4637 40.0651 48.2845L38.2727 45.2374C38.0935 44.8789 38.1831 44.3412 38.5416 44.1619C38.9001 43.9827 39.4378 44.0723 39.617 44.4308L41.4094 47.4779C41.5887 47.8364 41.4991 48.3741 41.1406 48.5534C41.051 48.643 40.8717 48.643 40.7821 48.643Z"
              fill="white"/>
        <path opacity="0.7"
              d="M23.036 17.9917C22.7671 17.9917 22.4983 17.8125 22.319 17.6333L20.5266 14.5862C20.3474 14.2277 20.437 13.69 20.7955 13.5107C21.154 13.3315 21.6917 13.4211 21.8709 13.7796L23.6633 16.8267C23.8426 17.1852 23.753 17.7229 23.3945 17.9021C23.3049 17.9917 23.2152 17.9917 23.036 17.9917Z"
              fill="white"/>
        <path d="M47.8618 42.2794C47.5929 42.2794 47.3241 42.1898 47.0552 42.1002L44.0081 40.3078C43.2911 39.8597 43.0223 38.8738 43.3808 38.1569C43.8289 37.4399 44.8147 37.171 45.5316 37.5295L48.5787 39.3219C49.2957 39.77 49.5646 40.7559 49.2061 41.4728C48.9372 42.0105 48.3995 42.2794 47.8618 42.2794Z"
              fill="white"/>
        <path d="M17.2114 24.6247C16.9425 24.6247 16.6737 24.5351 16.4048 24.4454L13.3577 22.653C12.6407 22.2049 12.3719 21.2191 12.7304 20.5021C13.1785 19.7852 14.1643 19.5163 14.8813 19.8748L17.9283 21.6672C18.6453 22.1153 18.9142 23.1011 18.5557 23.8181C18.2868 24.3558 17.7491 24.6247 17.2114 24.6247Z"
              fill="white"/>
        <path opacity="0.7"
              d="M15.0603 31.7943H11.4755C11.0274 31.7943 10.6689 31.4358 10.6689 30.9877C10.6689 30.5396 11.0274 30.1812 11.4755 30.1812H15.0603C15.5085 30.1812 15.8669 30.5396 15.8669 30.9877C15.8669 31.4358 15.5085 31.7943 15.0603 31.7943Z"
              fill="white"/>
        <path d="M44.8146 24.6247C44.2768 24.6247 43.7391 24.3558 43.4703 23.8181C43.0222 23.1011 43.291 22.1153 44.0976 21.6672L47.1447 19.8748C47.8617 19.4267 48.8475 19.6956 49.2956 20.5021C49.7437 21.2191 49.4748 22.2049 48.6682 22.653L45.6212 24.4454C45.3523 24.5351 45.0834 24.6247 44.8146 24.6247Z"
              fill="white"/>
        <path d="M14.1642 42.2794C13.6265 42.2794 13.0887 42.0106 12.8199 41.4728C12.3718 40.7559 12.6406 39.77 13.4472 39.3219L16.4943 37.5295C17.2113 37.0814 18.1971 37.3503 18.6452 38.1569C19.0933 38.8738 18.8244 39.8597 18.0179 40.3078L14.9708 42.1002C14.7019 42.2794 14.433 42.2794 14.1642 42.2794Z"
              fill="white"/>
        <path opacity="0.7"
              d="M38.9897 17.9917C38.8105 17.9917 38.7208 17.9917 38.6312 17.9021C38.2727 17.7229 38.0935 17.1852 38.3624 16.8267L40.1548 13.7796C40.334 13.4211 40.8717 13.2419 41.2302 13.5107C41.5887 13.69 41.7679 14.2277 41.4991 14.5862L39.7067 17.6333C39.5274 17.8125 39.2586 17.9917 38.9897 17.9917Z"
              fill="white"/>
        <path opacity="0.7"
              d="M21.2436 48.643C21.0644 48.643 20.9748 48.643 20.8851 48.5534C20.5266 48.3741 20.3474 47.8364 20.6163 47.4779L22.4087 44.4308C22.5879 44.0723 23.1256 43.8931 23.4841 44.162C23.8426 44.3412 24.0218 44.8789 23.753 45.2374L21.9606 48.2845C21.7813 48.4637 21.5125 48.643 21.2436 48.643Z"
              fill="white"/>
        <path d="M31.0129 3.0256C15.5981 3.0256 3.05127 15.5725 3.05127 30.9872C3.05127 46.4019 15.5981 58.9488 31.0129 58.9488C46.4276 58.9488 58.9745 46.4019 58.9745 30.9872C58.9745 15.5725 46.4276 3.0256 31.0129 3.0256ZM31.0129 55.0055C17.749 55.0055 6.99457 44.251 6.99457 30.9872C6.99457 17.7234 17.749 6.96891 31.0129 6.96891C44.2767 6.96891 55.0312 17.7234 55.0312 30.9872C55.0312 44.251 44.2767 55.0055 31.0129 55.0055Z"
              fill="white"/>
        <path d="M32.8954 31.7943C32.9851 31.5255 33.0747 31.2566 33.0747 30.9877C33.0747 30.0915 32.537 29.3746 31.82 29.1057V19.6059C31.82 19.1578 31.4615 18.7993 31.0134 18.7993C30.5653 18.7993 30.2068 19.1578 30.2068 19.6059V29.1057C29.4899 29.3746 28.9521 30.1811 28.9521 30.9877C28.9521 32.1528 29.8484 33.049 31.0134 33.049C31.2823 33.049 31.5511 32.9594 31.82 32.8698L36.301 37.3508C36.4803 37.53 36.6595 37.6196 36.8388 37.6196C37.018 37.6196 37.2869 37.53 37.3765 37.3508C37.6453 37.0819 37.6453 36.5442 37.3765 36.1857L32.8954 31.7943Z"
              fill="white"/>
    </g>
    <defs>
        <clipPath id="clip0_52_4806">
            <rect width="56" height="56" fill="white" transform="translate(3 3)"/>
        </clipPath>
    </defs>
</svg>
