<svg width="45" height="62" viewBox="0 0 45 62" fill="none" xmlns="http://www.w3.org/2000/svg">
    <path fill-rule="evenodd" clip-rule="evenodd"
          d="M43.9479 24.6878C42.3551 24.6878 41.0633 25.9791 41.0633 27.5724C41.0633 29.1652 42.3545 30.4571 43.9479 30.4571C45.5407 30.4571 46.8325 29.1658 46.8325 27.5724C46.833 25.9792 45.5413 24.6878 43.9479 24.6878ZM18.819 24.6878C17.2262 24.6878 15.9344 25.9791 15.9344 27.5724C15.9344 29.1652 17.2257 30.4571 18.819 30.4571C20.4118 30.4571 21.7036 29.1658 21.7036 27.5724C21.7036 25.9792 20.4119 24.6878 18.819 24.6878ZM43.9479 10.6173C42.3551 10.6173 41.0633 11.9086 41.0633 13.502C41.0633 15.0948 42.3545 16.3866 43.9479 16.3866C45.5407 16.3866 46.8325 15.0953 46.8325 13.502C46.833 11.9092 45.5413 10.6173 43.9479 10.6173ZM18.819 10.4396C17.2262 10.4396 15.9344 11.7309 15.9344 13.3242C15.9344 14.9179 17.2257 16.2089 18.819 16.2089C20.4118 16.2089 21.7036 14.9176 21.7036 13.3242C21.7036 11.731 20.4119 10.4396 18.819 10.4396ZM55.5357 9.72064H32.3111V21.9336H38.4896C38.4148 21.6907 38.4161 21.4322 38.4965 21.1724C39.2169 18.8461 41.3846 17.1568 43.9472 17.1568C46.5102 17.1568 48.6779 18.8465 49.3979 21.1724C49.4782 21.4318 49.4795 21.6907 49.4048 21.9336H55.535L55.5357 9.72064ZM32.3111 23.7911V36.0041H38.4896C38.4148 35.7612 38.4161 35.5027 38.4965 35.2429C39.2169 32.9166 41.3846 31.2273 43.9472 31.2273C46.5102 31.2273 48.6779 32.9169 49.3979 35.2429C49.4782 35.5022 49.4795 35.7612 49.4048 36.0041H55.3034C55.3668 36.0041 55.4246 35.978 55.4668 35.9354C55.5089 35.8933 55.5354 35.8355 55.5354 35.7721L55.5363 23.7916L32.3111 23.7911ZM30.4541 9.72064H7.22949V21.9336H13.4296C13.2889 21.6416 13.2663 21.3184 13.3666 20.9942C14.087 18.668 16.2551 16.9786 18.8173 16.9786C21.3804 16.9786 23.548 18.6683 24.268 20.9942C24.3683 21.3188 24.3457 21.6416 24.205 21.9336H30.4534L30.4541 9.72064ZM7.22949 23.7911V35.7716C7.22949 35.8351 7.25556 35.8928 7.29814 35.935C7.34029 35.9771 7.39807 36.0036 7.46151 36.0036H13.3592C13.2845 35.7608 13.2858 35.5022 13.3662 35.2424C14.0866 32.9162 16.2547 31.2268 18.8168 31.2268C21.3799 31.2268 23.5475 32.9165 24.2675 35.2424C24.3479 35.5018 24.3492 35.7608 24.2745 36.0036H30.4529L30.4538 23.7907L7.22949 23.7911Z"
          fill="white"/>
    <path opacity="0.7" fill-rule="evenodd" clip-rule="evenodd"
          d="M22.3373 46.244V49.5609H40.4288V46.244H22.3373ZM12.988 57.4481H49.777C50.4162 57.4481 50.938 56.9272 50.938 56.2871V54.4323C50.938 52.7738 49.24 51.417 47.1645 51.417H15.601C13.5254 51.417 11.8274 52.7738 11.8274 54.4323V56.2871C11.827 56.9263 12.3488 57.4481 12.988 57.4481ZM7.02633 5.09259H55.7391C58.1727 5.09259 60.1644 7.08381 60.1644 9.51784V39.9624C60.1644 42.3959 58.1732 44.3876 55.7391 44.3876L7.02633 44.3872C4.59274 44.3872 2.60107 42.396 2.60107 39.9619V9.51852C2.60107 7.08405 4.5923 5.09259 7.02633 5.09259ZM6.9151 7.86445C6.49017 7.86445 6.1039 8.03782 5.82496 8.31676C5.54602 8.5957 5.37266 8.98196 5.37266 9.40689V35.7726C5.37266 36.3488 5.60685 36.871 5.98529 37.2487C6.36372 37.6271 6.88599 37.8613 7.4613 37.8613H55.3032C55.8793 37.8613 56.4016 37.6271 56.78 37.2487C57.1584 36.8702 57.3926 36.348 57.3926 35.7726V9.40578C57.3926 8.98085 57.2192 8.59458 56.9403 8.31564C56.6614 8.0367 56.2751 7.86334 55.8502 7.86334H6.9149L6.9151 7.86445Z"
          fill="white"/>
</svg>
