<svg width="24" height="24" viewBox="0 0 24 24" fill="none" xmlns="http://www.w3.org/2000/svg">
    <path fill-rule="evenodd" clip-rule="evenodd"
          d="M9.81026 15.0861C9.42932 15.3865 8.85791 15.1197 8.85791 14.6244V13.2431H1.89854C1.5745 13.2431 1.31104 12.9797 1.31104 12.6556V11.3431C1.31104 11.0191 1.5745 10.7556 1.89854 10.7556H8.85791V9.37438C8.85791 8.88984 9.42226 8.60195 9.81177 8.91381L13.1349 11.5367L13.1358 11.5374C13.2056 11.5922 13.2621 11.6622 13.301 11.7421C13.34 11.8222 13.3603 11.9102 13.3603 11.9994C13.3603 12.0886 13.34 12.1766 13.301 12.2567C13.2621 12.3365 13.2056 12.4065 13.1358 12.4614L13.1349 12.462L9.81026 15.0861Z"
          fill="url(#paint0_linear_81_1569)"/>
    <path d="M3.86682 7.24313H5.51447C5.72044 7.24313 5.91901 7.16194 6.06468 7.01373C6.08126 6.99686 6.09716 6.97912 6.1123 6.96053C6.2673 6.77238 6.43355 6.59063 6.60879 6.41761L6.61016 6.41625C7.33838 5.69027 8.18373 5.11949 9.12462 4.72262C10.097 4.31225 11.1317 4.1025 12.2012 4.1025C13.2713 4.1025 14.3055 4.31009 15.277 4.72229C17.9827 5.86358 20.1074 9.05566 20.1074 11.9994C20.1074 13.0687 19.8978 14.1009 19.4875 15.0733C19.0906 16.012 18.5199 16.8571 17.7922 17.5825C17.064 18.3085 16.2185 18.8793 15.2776 19.2762C14.3044 19.6873 13.2576 19.8981 12.2012 19.8963C11.1317 19.8963 10.0971 19.6865 9.12469 19.2762C8.1852 18.8795 7.33134 18.3044 6.6106 17.5829C6.43572 17.4081 6.27055 17.2253 6.11037 17.0359C5.96135 16.8545 5.73921 16.7556 5.51447 16.7556H3.86682C3.41114 16.7556 3.11415 17.2641 3.37446 17.662C5.24045 20.5574 8.49534 22.4775 12.2012 22.4775C17.9563 22.4775 22.6302 17.8455 22.6887 12.1065C22.7338 7.60587 19.9549 3.75527 16.0001 2.22588C14.1482 1.50968 11.9466 1.33696 10.0001 1.75227C7.22602 2.34418 4.85729 4.03229 3.37311 6.33887C3.12381 6.72748 3.4007 7.24313 3.86682 7.24313Z"
          fill="url(#paint1_linear_81_1569)"/>
    <defs>
        <linearGradient id="paint0_linear_81_1569" x1="1.31104" y1="1.53027" x2="24.0306" y2="3.10333"
                        gradientUnits="userSpaceOnUse">
            <stop stop-color="#2DFF73"/>
            <stop offset="1" stop-color="white"/>
        </linearGradient>
        <linearGradient id="paint1_linear_81_1569" x1="1.31104" y1="1.53027" x2="24.0306" y2="3.10333"
                        gradientUnits="userSpaceOnUse">
            <stop stop-color="#2DFF73"/>
            <stop offset="1" stop-color="white"/>
        </linearGradient>
    </defs>
</svg>
