<svg width="16" height="16" viewBox="0 0 16 16" fill="none" xmlns="http://www.w3.org/2000/svg">
    <path d="M10.4 16C10.6122 16 10.8157 15.9157 10.9657 15.7657C11.1157 15.6157 11.2 15.4122 11.2 15.2C11.2 14.9878 11.1157 14.7843 10.9657 14.6343C10.8157 14.4843 10.6122 14.4 10.4 14.4H3.73333C3.16754 14.4 2.62492 14.1752 2.22484 13.7752C1.82476 13.3751 1.6 12.8325 1.6 12.2667V3.73333C1.6 3.16754 1.82476 2.62492 2.22484 2.22484C2.62492 1.82476 3.16754 1.6 3.73333 1.6H10.4C10.6122 1.6 10.8157 1.51571 10.9657 1.36569C11.1157 1.21566 11.2 1.01217 11.2 0.8C11.2 0.587827 11.1157 0.384344 10.9657 0.234314C10.8157 0.0842854 10.6122 0 10.4 0H3.73333C2.74319 0 1.7936 0.393332 1.09347 1.09347C0.393332 1.7936 0 2.74319 0 3.73333V12.2667C0 13.2568 0.393332 14.2064 1.09347 14.9065C1.7936 15.6067 2.74319 16 3.73333 16H10.4ZM11.4571 3.9456C11.5342 3.87429 11.6247 3.81887 11.7233 3.78253C11.8219 3.74618 11.9267 3.72962 12.0317 3.73378C12.1367 3.73794 12.2398 3.76274 12.3352 3.80677C12.4306 3.85081 12.5164 3.9132 12.5877 3.9904L15.7877 7.45707C15.9243 7.60488 16.0002 7.79874 16.0002 8C16.0002 8.20126 15.9243 8.39512 15.7877 8.54293L12.5877 12.0096C12.4436 12.1653 12.2435 12.2574 12.0315 12.2656C11.8194 12.2738 11.6128 12.1975 11.4571 12.0533C11.3013 11.9092 11.2092 11.7091 11.201 11.4971C11.1928 11.285 11.2692 11.0784 11.4133 10.9227L13.3739 8.79893H5.06667C4.85449 8.79893 4.65101 8.71465 4.50098 8.56462C4.35095 8.41459 4.26667 8.21111 4.26667 7.99893C4.26667 7.78676 4.35095 7.58328 4.50098 7.43325C4.65101 7.28322 4.85449 7.19893 5.06667 7.19893H13.3728L11.4123 5.0752C11.341 4.99803 11.2855 4.90756 11.2492 4.80896C11.2128 4.71037 11.1963 4.60558 11.2004 4.50059C11.2046 4.39559 11.2294 4.29244 11.2734 4.19703C11.3175 4.10162 11.3799 4.01582 11.4571 3.94453V3.9456Z"
          fill="#8C8C8C"/>
</svg>
