<svg width="45" height="62" viewBox="0 0 45 62" fill="none" xmlns="http://www.w3.org/2000/svg">
    <path d="M39.6694 25.2695C50.7373 25.2695 61.9389 21.4447 61.9389 14.1347C61.9389 6.82478 50.7373 3 39.6694 3C28.6014 3 17.3999 6.82478 17.3999 14.1347C17.3999 21.4447 28.6014 25.2695 39.6694 25.2695Z"
          fill="white"/>
    <path d="M17.3999 25.2695C17.3999 32.5795 28.6014 36.4042 39.6694 36.4042C50.7373 36.4042 61.9389 32.5795 61.9389 25.2695V19.7021C61.9389 27.0121 50.7373 30.8369 39.6694 30.8369C28.6014 30.8369 17.3999 27.0121 17.3999 19.7021V25.2695Z"
          fill="white"/>
    <path d="M17.3999 36.4042C17.3999 43.7142 28.6014 47.539 39.6694 47.539C50.7373 47.539 61.9389 43.7142 61.9389 36.4042V30.8369C61.9389 38.1468 50.7373 41.9716 39.6694 41.9716C28.6014 41.9716 17.3999 38.1468 17.3999 30.8369V36.4042Z"
          fill="white"/>
    <path d="M17.3999 47.5389C17.3999 54.8489 28.6014 58.6737 39.6694 58.6737C50.7373 58.6737 61.9389 54.8489 61.9389 47.5389V41.9716C61.9389 49.2815 50.7373 53.1063 39.6694 53.1063C28.6014 53.1063 17.3999 49.2815 17.3999 41.9716V47.5389Z"
          fill="white"/>
</svg>
