<svg width="45" height="62" viewBox="0 0 45 62" fill="none" xmlns="http://www.w3.org/2000/svg">
    <path opacity="0.7"
          d="M31.9057 61.0289L30.7476 61.7336L29.2995 61.0299L4.5459 46.6989L3.96631 46.3913V45.6851L3.96732 17.4579L3.96649 15.484L5.12549 14.8528L29.2996 0.811556L30.7476 0L32.0502 0.811556L56.3685 14.8528L57.5277 15.5245V46.12L31.9057 61.0289ZM54.6317 17.0237L30.7476 3.27221L6.86353 17.0237V44.6719L30.7476 58.5679L54.6317 44.8164V17.0237Z"
          fill="white"/>
    <path d="M16.2719 21.2215L30.7474 29.6173L45.223 21.2215L30.7474 12.8257L16.2719 21.2215ZM15.1138 39.8954L29.4448 48.147V31.9336L15.1138 23.682V39.8954ZM32.1954 48.1459L46.3811 40.0399V23.8276L32.1954 31.9336V48.1459Z"
          fill="white"/>
</svg>
